<svg width="52" height="52" viewBox="0 0 52 52" fill="none" xmlns="http://www.w3.org/2000/svg">
<rect x="1" y="1" width="50" height="50" rx="9" fill="url(#paint0_linear_6_1236)"/>
<rect x="1" y="1" width="50" height="50" rx="9" stroke="url(#paint1_linear_6_1236)" stroke-width="2"/>
<g clip-path="url(#clip0_6_1236)">
<path d="M28.0033 40.7983H23.2449C22.4501 40.7983 21.8035 40.1517 21.8035 39.3569V28.6239H19.0273C18.2325 28.6239 17.5859 27.9771 17.5859 27.1825V22.5834C17.5859 21.7886 18.2325 21.1421 19.0273 21.1421H21.8035V18.839C21.8035 16.5554 22.5206 14.6126 23.8769 13.2209C25.2394 11.8228 27.1435 11.084 29.3833 11.084L33.0123 11.0899C33.8058 11.0912 34.4512 11.7378 34.4512 12.5312V16.8014C34.4512 17.5962 33.8049 18.2428 33.0103 18.2428L30.5669 18.2437C29.8217 18.2437 29.632 18.3931 29.5914 18.4389C29.5245 18.5148 29.4449 18.7295 29.4449 19.3223V21.1418H32.8267C33.0812 21.1418 33.3279 21.2046 33.5399 21.323C33.9971 21.5785 34.2814 22.0616 34.2814 22.5837L34.2796 27.1828C34.2796 27.9771 33.633 28.6237 32.8382 28.6237H29.4449V39.3569C29.4449 40.1517 28.7982 40.7983 28.0033 40.7983ZM23.5455 39.0563H27.7027V27.8441C27.7027 27.3134 28.1346 26.8817 28.6651 26.8817H32.5376L32.5392 22.8841H28.6649C28.1344 22.8841 27.7027 22.4524 27.7027 21.9217V19.3223C27.7027 18.6418 27.7719 17.8678 28.2856 17.2861C28.9063 16.5829 29.8845 16.5017 30.5664 16.5017L32.7092 16.5008V12.8314L29.3819 12.826C25.7823 12.826 23.5455 15.1302 23.5455 18.839V21.9217C23.5455 22.4522 23.1138 22.8841 22.5834 22.8841H19.3279V26.8817H22.5834C23.1138 26.8817 23.5455 27.3134 23.5455 27.8441V39.0563Z" fill="url(#paint2_linear_6_1236)"/>
</g>
<defs>
<linearGradient id="paint0_linear_6_1236" x1="-1.93286" y1="48.2368" x2="55.0339" y2="14.0737" gradientUnits="userSpaceOnUse">
<stop stop-color="#DDBFFF"/>
<stop offset="1" stop-color="#EDDDFF"/>
</linearGradient>
<linearGradient id="paint1_linear_6_1236" x1="49.2566" y1="52" x2="2.0754" y2="4.36722" gradientUnits="userSpaceOnUse">
<stop stop-color="#755797"/>
<stop offset="1" stop-color="#070F3D"/>
</linearGradient>
<linearGradient id="paint2_linear_6_1236" x1="26.0186" y1="40.7983" x2="26.0186" y2="11.084" gradientUnits="userSpaceOnUse">
<stop stop-color="#000E38"/>
<stop offset="1" stop-color="#3F186A"/>
</linearGradient>
<clipPath id="clip0_6_1236">
<rect width="29.6563" height="29.7143" fill="white" transform="translate(11.1719 11.1426)"/>
</clipPath>
</defs>
</svg>
