<svg width="52" height="52" viewBox="0 0 52 52" fill="none" xmlns="http://www.w3.org/2000/svg">
<rect x="1" y="1" width="50" height="50" rx="9" fill="url(#paint0_linear_6_1230)"/>
<rect x="1" y="1" width="50" height="50" rx="9" stroke="url(#paint1_linear_6_1230)" stroke-width="2"/>
<g clip-path="url(#clip0_6_1230)">
<path d="M32.8139 11.1426H19.1864C14.7512 11.1426 11.1431 14.7508 11.1431 19.1859V32.8137C11.1431 37.2486 14.7512 40.8568 19.1864 40.8568H32.8141C37.2491 40.8568 40.8573 37.2486 40.8573 32.8137V19.1859C40.8573 14.7508 37.2491 11.1426 32.8139 11.1426ZM39.1153 32.8137C39.1153 36.2881 36.2886 39.1148 32.8139 39.1148H19.1864C15.7118 39.1148 12.885 36.2881 12.885 32.8137V19.1859C12.885 15.7113 15.7118 12.8846 19.1864 12.8846H32.8141C36.2886 12.8846 39.1153 15.7113 39.1153 19.1859V32.8137Z" fill="url(#paint2_linear_6_1230)"/>
<path d="M25.9983 17.875C21.5182 17.875 17.8735 21.5197 17.8735 25.9998C17.8735 30.4798 21.5182 34.1245 25.9983 34.1245C30.4784 34.1245 34.1231 30.4798 34.1231 25.9998C34.1231 21.5197 30.4784 17.875 25.9983 17.875ZM25.9983 32.3825C22.479 32.3825 19.6155 29.5193 19.6155 25.9998C19.6155 22.4804 22.479 19.617 25.9983 19.617C29.5178 19.617 32.3811 22.4804 32.3811 25.9998C32.3811 29.5193 29.5178 32.3825 25.9983 32.3825Z" fill="url(#paint3_linear_6_1230)"/>
<path d="M34.3212 14.9893C32.9972 14.9893 31.9204 16.0663 31.9204 17.39C31.9204 18.714 32.9972 19.791 34.3212 19.791C35.6451 19.791 36.7222 18.714 36.7222 17.39C36.7222 16.0661 35.6451 14.9893 34.3212 14.9893ZM34.3212 18.0488C33.958 18.0488 33.6624 17.7532 33.6624 17.39C33.6624 17.0266 33.958 16.7312 34.3212 16.7312C34.6846 16.7312 34.9802 17.0266 34.9802 17.39C34.9802 17.7532 34.6846 18.0488 34.3212 18.0488Z" fill="url(#paint4_linear_6_1230)"/>
</g>
<defs>
<linearGradient id="paint0_linear_6_1230" x1="-1.93286" y1="48.2368" x2="55.0339" y2="14.0737" gradientUnits="userSpaceOnUse">
<stop stop-color="#DDBFFF"/>
<stop offset="1" stop-color="#EDDDFF"/>
</linearGradient>
<linearGradient id="paint1_linear_6_1230" x1="49.2566" y1="52" x2="2.0754" y2="4.36722" gradientUnits="userSpaceOnUse">
<stop stop-color="#755797"/>
<stop offset="1" stop-color="#070F3D"/>
</linearGradient>
<linearGradient id="paint2_linear_6_1230" x1="26.0002" y1="40.8568" x2="26.0002" y2="11.1426" gradientUnits="userSpaceOnUse">
<stop stop-color="#000E38"/>
<stop offset="1" stop-color="#3F186A"/>
</linearGradient>
<linearGradient id="paint3_linear_6_1230" x1="25.9983" y1="34.1245" x2="25.9983" y2="17.875" gradientUnits="userSpaceOnUse">
<stop stop-color="#000E38"/>
<stop offset="1" stop-color="#3F186A"/>
</linearGradient>
<linearGradient id="paint4_linear_6_1230" x1="34.3213" y1="19.791" x2="34.3213" y2="14.9893" gradientUnits="userSpaceOnUse">
<stop stop-color="#000E38"/>
<stop offset="1" stop-color="#3F186A"/>
</linearGradient>
<clipPath id="clip0_6_1230">
<rect width="29.7143" height="29.7143" fill="white" transform="translate(11.1431 11.1426)"/>
</clipPath>
</defs>
</svg>
