<svg width="60" height="60" viewBox="0 0 60 60" fill="none" xmlns="http://www.w3.org/2000/svg">
<circle cx="30" cy="30" r="30" fill="white"/>
<path d="M43.3818 29.116L34.6318 20.366C34.396 20.1383 34.0803 20.0123 33.7525 20.0152C33.4248 20.018 33.1113 20.1495 32.8795 20.3813C32.6478 20.613 32.5163 20.9265 32.5135 21.2543C32.5106 21.582 32.6366 21.8978 32.8643 22.1335L39.4805 28.7498H17.498C17.1665 28.7498 16.8486 28.8815 16.6142 29.1159C16.3797 29.3503 16.248 29.6683 16.248 29.9998C16.248 30.3313 16.3797 30.6492 16.6142 30.8837C16.8486 31.1181 17.1665 31.2498 17.498 31.2498H39.4805L32.8643 37.866C32.7449 37.9813 32.6497 38.1193 32.5842 38.2718C32.5187 38.4243 32.4842 38.5883 32.4827 38.7543C32.4813 38.9202 32.5129 39.0848 32.5758 39.2385C32.6386 39.3921 32.7314 39.5317 32.8488 39.649C32.9662 39.7664 33.1057 39.8592 33.2594 39.9221C33.413 39.9849 33.5776 40.0165 33.7435 40.0151C33.9095 40.0136 34.0735 39.9792 34.2261 39.9137C34.3786 39.8481 34.5165 39.7529 34.6318 39.6335L43.3818 30.8835C43.6161 30.6491 43.7478 30.3312 43.7478 29.9998C43.7478 29.6683 43.6161 29.3504 43.3818 29.116Z" fill="url(#paint0_linear_6_1018)"/>
<defs>
<linearGradient id="paint0_linear_6_1018" x1="29.9979" y1="40.0151" x2="29.9979" y2="20.0151" gradientUnits="userSpaceOnUse">
<stop stop-color="#000E38"/>
<stop offset="1" stop-color="#3F186A"/>
</linearGradient>
</defs>
</svg>
