<svg width="51" height="51" viewBox="0 0 51 51" fill="none" xmlns="http://www.w3.org/2000/svg">
<path d="M10 1H40.6377C45.6081 1.0002 49.6377 5.02956 49.6377 10V40.6377C49.6375 45.608 45.608 49.6375 40.6377 49.6377H10C5.02956 49.6377 1.0002 45.6081 1 40.6377V10C1 5.02944 5.02944 1 10 1Z" fill="url(#paint0_linear_6_1219)"/>
<path d="M10 1H40.6377C45.6081 1.0002 49.6377 5.02956 49.6377 10V40.6377C49.6375 45.608 45.608 49.6375 40.6377 49.6377H10C5.02956 49.6377 1.0002 45.6081 1 40.6377V10C1 5.02944 5.02944 1 10 1Z" stroke="url(#paint1_linear_6_1219)" stroke-width="2"/>
<g clip-path="url(#clip0_6_1219)">
<path d="M33.7178 28.7753C33.1254 28.1585 32.4109 27.8287 31.6536 27.8287C30.9025 27.8287 30.1818 28.1524 29.565 28.7692L27.6352 30.6929C27.4764 30.6074 27.3176 30.528 27.1649 30.4486C26.9451 30.3387 26.7374 30.2349 26.5603 30.125C24.7527 28.9768 23.1099 27.4806 21.5342 25.5447C20.7708 24.5797 20.2579 23.7675 19.8853 22.9431C20.3861 22.485 20.8502 22.0087 21.3022 21.5506C21.4732 21.3796 21.6442 21.2025 21.8152 21.0315C23.0976 19.7491 23.0976 18.0879 21.8152 16.8055L20.1479 15.1382C19.9586 14.9489 19.7632 14.7535 19.58 14.5581C19.2135 14.1794 18.8288 13.7886 18.4318 13.4222C17.8395 12.8359 17.131 12.5244 16.386 12.5244C15.6409 12.5244 14.9203 12.8359 14.3096 13.4222C14.3035 13.4283 14.3035 13.4283 14.2974 13.4344L12.221 15.5291C11.4393 16.3108 10.9934 17.2635 10.8957 18.3689C10.7492 20.1521 11.2744 21.8133 11.6774 22.9003C12.6668 25.5691 14.1447 28.0424 16.3493 30.6929C19.0242 33.8869 22.2426 36.4091 25.9191 38.1863C27.3237 38.8519 29.1986 39.6398 31.2933 39.7741C31.4216 39.7802 31.5559 39.7863 31.6781 39.7863C33.0888 39.7863 34.2736 39.2794 35.2018 38.2718C35.2079 38.2596 35.2201 38.2535 35.2263 38.2412C35.5438 37.8565 35.9102 37.5084 36.295 37.1359C36.5576 36.8855 36.8263 36.6229 37.0889 36.3481C37.6935 35.719 38.0111 34.9862 38.0111 34.235C38.0111 33.4777 37.6874 32.751 37.0706 32.1403L33.7178 28.7753ZM35.9041 35.206C35.898 35.206 35.898 35.2121 35.9041 35.206C35.666 35.4625 35.4217 35.6946 35.1591 35.9511C34.7621 36.3297 34.3591 36.7267 33.9804 37.1725C33.3636 37.8321 32.6369 38.1435 31.6842 38.1435C31.5926 38.1435 31.4948 38.1435 31.4032 38.1374C29.5894 38.0214 27.9039 37.313 26.6397 36.7084C23.1831 35.035 20.1479 32.6594 17.6257 29.6486C15.5432 27.1386 14.1508 24.8179 13.2286 22.3262C12.6607 20.8056 12.453 19.6208 12.5446 18.5032C12.6057 17.7887 12.8805 17.1963 13.3874 16.6894L15.4699 14.6069C15.7692 14.326 16.0867 14.1733 16.3982 14.1733C16.7829 14.1733 17.0944 14.4054 17.2898 14.6008C17.2959 14.6069 17.302 14.613 17.3081 14.6191C17.6807 14.9672 18.0349 15.3276 18.4074 15.7123C18.5967 15.9077 18.7922 16.1032 18.9876 16.3047L20.6548 17.9719C21.3022 18.6193 21.3022 19.2178 20.6548 19.8651C20.4777 20.0422 20.3067 20.2193 20.1296 20.3903C19.6166 20.9155 19.128 21.4041 18.5967 21.8804C18.5845 21.8926 18.5723 21.8987 18.5662 21.911C18.041 22.4362 18.1387 22.9492 18.2486 23.2973C18.2547 23.3156 18.2608 23.3339 18.267 23.3522C18.7006 24.4026 19.3113 25.392 20.2395 26.5706L20.2456 26.5768C21.9312 28.6532 23.7083 30.2715 25.6687 31.5113C25.9191 31.67 26.1756 31.7983 26.4199 31.9204C26.6397 32.0304 26.8474 32.1342 27.0245 32.2441C27.0489 32.2563 27.0733 32.2746 27.0978 32.2869C27.3054 32.3907 27.5008 32.4395 27.7024 32.4395C28.2092 32.4395 28.5268 32.122 28.6306 32.0181L30.7192 29.9295C30.9269 29.7219 31.2567 29.4715 31.6414 29.4715C32.02 29.4715 32.3315 29.7097 32.5208 29.9173C32.5269 29.9234 32.5269 29.9234 32.533 29.9295L35.898 33.2945C36.5271 33.9174 36.5271 34.5587 35.9041 35.206Z" fill="url(#paint2_linear_6_1219)"/>
<path d="M26.4867 17.7332C28.0868 18.0019 29.5403 18.7592 30.7006 19.9195C31.8609 21.0798 32.6121 22.5333 32.8869 24.1334C32.9541 24.5364 33.3022 24.8174 33.6992 24.8174C33.748 24.8174 33.7908 24.8113 33.8396 24.8051C34.2916 24.7319 34.5908 24.3044 34.5175 23.8524C34.1877 21.9165 33.2717 20.1516 31.8732 18.7531C30.4746 17.3545 28.7097 16.4385 26.7738 16.1087C26.3218 16.0354 25.9005 16.3347 25.8211 16.7805C25.7417 17.2263 26.0348 17.6599 26.4867 17.7332Z" fill="url(#paint3_linear_6_1219)"/>
<path d="M39.7477 23.6147C39.2042 20.4268 37.7019 17.526 35.3934 15.2175C33.0849 12.909 30.1841 11.4067 26.9962 10.8632C26.5504 10.7838 26.129 11.0891 26.0496 11.5349C25.9763 11.9869 26.2756 12.4082 26.7275 12.4876C29.5734 12.9701 32.1689 14.3198 34.2331 16.3778C36.2972 18.442 37.6408 21.0375 38.1233 23.8834C38.1904 24.2865 38.5385 24.5674 38.9355 24.5674C38.9844 24.5674 39.0271 24.5613 39.076 24.5552C39.5218 24.488 39.8271 24.0605 39.7477 23.6147Z" fill="url(#paint4_linear_6_1219)"/>
</g>
<defs>
<linearGradient id="paint0_linear_6_1219" x1="-1.88221" y1="46.9728" x2="53.5917" y2="13.7049" gradientUnits="userSpaceOnUse">
<stop stop-color="#DDBFFF"/>
<stop offset="1" stop-color="#EDDDFF"/>
</linearGradient>
<linearGradient id="paint1_linear_6_1219" x1="47.9658" y1="50.6373" x2="2.02101" y2="4.25277" gradientUnits="userSpaceOnUse">
<stop stop-color="#755797"/>
<stop offset="1" stop-color="#070F3D"/>
</linearGradient>
<linearGradient id="paint2_linear_6_1219" x1="24.4408" y1="39.7863" x2="24.4408" y2="12.5244" gradientUnits="userSpaceOnUse">
<stop stop-color="#000E38"/>
<stop offset="1" stop-color="#3F186A"/>
</linearGradient>
<linearGradient id="paint3_linear_6_1219" x1="30.1683" y1="24.8174" x2="30.1683" y2="16.0977" gradientUnits="userSpaceOnUse">
<stop stop-color="#000E38"/>
<stop offset="1" stop-color="#3F186A"/>
</linearGradient>
<linearGradient id="paint4_linear_6_1219" x1="32.8994" y1="24.5674" x2="32.8994" y2="10.8506" gradientUnits="userSpaceOnUse">
<stop stop-color="#000E38"/>
<stop offset="1" stop-color="#3F186A"/>
</linearGradient>
<clipPath id="clip0_6_1219">
<rect width="28.9356" height="28.9356" fill="white" transform="translate(10.8511 10.8506)"/>
</clipPath>
</defs>
</svg>
