<svg width="60" height="60" viewBox="0 0 60 60" fill="none" xmlns="http://www.w3.org/2000/svg">
<circle cx="30" cy="30" r="28.875" transform="matrix(-1 0 0 1 60 0)" stroke="white" stroke-width="2.25"/>
<path d="M16.6182 29.116L25.3682 20.366C25.604 20.1383 25.9197 20.0123 26.2475 20.0152C26.5752 20.018 26.8887 20.1495 27.1205 20.3813C27.3522 20.613 27.4837 20.9265 27.4865 21.2543C27.4894 21.582 27.3634 21.8978 27.1357 22.1335L20.5195 28.7498H42.502C42.8335 28.7498 43.1514 28.8815 43.3858 29.1159C43.6203 29.3503 43.752 29.6683 43.752 29.9998C43.752 30.3313 43.6203 30.6492 43.3858 30.8837C43.1514 31.1181 42.8335 31.2498 42.502 31.2498H20.5195L27.1357 37.866C27.2551 37.9813 27.3503 38.1193 27.4158 38.2718C27.4813 38.4243 27.5158 38.5883 27.5173 38.7543C27.5187 38.9202 27.4871 39.0848 27.4242 39.2385C27.3614 39.3921 27.2686 39.5317 27.1512 39.649C27.0338 39.7664 26.8943 39.8592 26.7406 39.9221C26.587 39.9849 26.4224 40.0165 26.2565 40.0151C26.0905 40.0136 25.9265 39.9792 25.7739 39.9137C25.6214 39.8481 25.4835 39.7529 25.3682 39.6335L16.6182 30.8835C16.3839 30.6491 16.2522 30.3312 16.2522 29.9998C16.2522 29.6683 16.3839 29.3504 16.6182 29.116Z" fill="white"/>
</svg>
